<?xml version="1.0" encoding="UTF-8"?>
<svg width="100pt" height="100pt" version="1.1" viewBox="0 0 100 100" xmlns="http://www.w3.org/2000/svg">
 <path d="m58.871 56.617h31.039v27.633c0 1.9492-1.582 3.5273-3.5273 3.5273h-72.766c-1.9492 0-3.5273-1.582-3.5273-3.5273v-27.633h31.254v0.89844h1.1602v7.332c0 1.9492 1.5781 3.5273 3.5273 3.5273h7.9375c1.9492 0 3.5273-1.582 3.5273-3.5273v-7.332h1.375zm33.246-28.816v21.609c0 1.9492-1.582 3.5273-3.5273 3.5273h-77.176c-1.9492 0-3.5273-1.582-3.5273-3.5273v-21.609c0-1.9492 1.582-3.5273 3.5273-3.5273h23.809v-6.9375c0-2.8242 2.2891-5.1133 5.1172-5.1133h19.324c2.8242 0 5.1172 2.2891 5.1172 5.1133v6.9414h23.809c1.9453-0.003906 3.5273 1.5742 3.5273 3.5234zm-34.395-8.5234h-15.445v4.9961h15.445z"/>
</svg>
